<svg width="147" height="40" viewBox="0 0 147 40" fill="none" xmlns="http://www.w3.org/2000/svg">
<path d="M29.4666 8C28.8535 8.00049 28.2657 8.24424 27.8322 8.67774C27.3987 9.11124 27.1549 9.69905 27.1545 10.3121C27.1545 11.5875 28.1912 12.6242 29.4666 12.6242C30.7419 12.6242 31.7787 11.5875 31.7787 10.3121C31.7787 9.03675 30.7419 8 29.4666 8ZM27.0971 13.5491C26.5043 13.5491 26.2731 13.7516 25.9115 13.9541L22.8484 16.5548C22.5774 16.7102 22.4322 16.9525 22.3277 17.2771L21.6637 21.6701C21.5693 22.3712 21.9374 22.6532 22.3573 22.7392C22.6967 22.8086 23.2091 22.6532 23.3099 22.1621C23.3931 21.7571 24.0035 18.1733 24.0035 18.1733L25.9984 16.6417C25.7297 17.8922 25.4695 19.1445 25.2178 20.3985C25.0301 21.3705 25.5323 22.1076 25.9115 22.6819C26.2629 23.2091 30.7484 30.3193 31.3449 31.0924C31.9415 31.8656 32.4797 32.2485 33.3102 31.7861C34.0039 31.3995 33.8993 30.5033 33.5128 29.8494C31.8705 27.1584 30.223 24.4705 28.5704 21.7857L29.351 18.4914C29.351 18.4914 29.8855 19.2498 30.1602 19.6762C30.2897 19.8787 30.4099 19.9684 30.7669 20.1673C31.1859 20.3985 33.2131 21.3048 33.8309 21.5832C34.3793 21.8292 35.0887 21.9235 35.3624 21.4389C35.6371 20.9552 35.2829 20.3846 34.8714 20.1959C34.4228 19.9906 31.4319 18.4914 31.4319 18.4914C31.4319 18.4914 30.359 16.2589 29.8134 15.0233C29.3001 13.8598 28.957 13.5491 28.2236 13.5491H27.0971ZM24.8128 23.173L23.8879 26.41L21.4324 29.9937C21.0311 30.5791 20.7166 31.2654 21.4028 31.7861C22.1723 32.3678 22.7938 31.627 23.1952 31.1784C23.5596 30.7669 25.0551 28.6749 25.4777 28.145C25.7598 27.7898 25.9078 27.4865 26.0271 27.1905C26.1066 26.9917 26.41 26.1898 26.6051 25.659L24.8128 23.173Z" fill="#122848"/>
<path d="M57.6 22.86C57.7733 22.86 57.9067 22.9467 58 23.12C58.0933 23.2933 58.14 23.5133 58.14 23.78C58.14 24.1133 58.0933 24.3733 58 24.56C57.9067 24.7333 57.76 24.8533 57.56 24.92C56.76 25.2 55.88 25.36 54.92 25.4C54.6533 26.5067 54.1467 27.4 53.4 28.08C52.6667 28.76 51.8533 29.1 50.96 29.1C49.6133 29.1 48.6333 28.5867 48.02 27.56C47.4067 26.5333 47.1 25.0467 47.1 23.1C47.1 21.38 47.3133 19.5133 47.74 17.5C48.1667 15.4733 48.7867 13.7533 49.6 12.34C50.4267 10.9133 51.4067 10.2 52.54 10.2C53.1533 10.2 53.6467 10.4667 54.02 11C54.3933 11.52 54.58 12.2 54.58 13.04C54.58 14.1333 54.3733 15.22 53.96 16.3C53.5467 17.38 52.86 18.5133 51.9 19.7C52.7933 19.7667 53.52 20.14 54.08 20.82C54.64 21.4867 54.9733 22.3133 55.08 23.3C55.7067 23.26 56.4533 23.1267 57.32 22.9C57.4 22.8733 57.4933 22.86 57.6 22.86ZM52.08 12.18C51.8133 12.18 51.52 12.58 51.2 13.38C50.8933 14.1667 50.6067 15.24 50.34 16.6C50.0733 17.96 49.8733 19.4467 49.74 21.06C50.62 19.4467 51.32 18.0267 51.84 16.8C52.3733 15.56 52.64 14.46 52.64 13.5C52.64 13.0733 52.5867 12.7467 52.48 12.52C52.3867 12.2933 52.2533 12.18 52.08 12.18ZM51.04 26.98C51.4533 26.98 51.82 26.8067 52.14 26.46C52.46 26.1133 52.6733 25.6133 52.78 24.96C52.3667 24.68 52.0467 24.3133 51.82 23.86C51.6067 23.4067 51.5 22.9267 51.5 22.42C51.5 22.2333 51.5267 21.98 51.58 21.66H51.52C50.9733 21.66 50.5133 21.9333 50.14 22.48C49.78 23.0133 49.6 23.7333 49.6 24.64C49.6 25.4 49.74 25.98 50.02 26.38C50.3133 26.78 50.6533 26.98 51.04 26.98ZM60.8731 29.1C60.0465 29.1 59.3865 28.8 58.8931 28.2C58.3998 27.6 58.1531 26.8133 58.1531 25.84C58.1531 24.7733 58.3998 23.7667 58.8931 22.82C59.3865 21.86 60.0398 21.0933 60.8531 20.52C61.6798 19.9333 62.5531 19.64 63.4731 19.64C63.7665 19.64 63.9598 19.7 64.0531 19.82C64.1598 19.9267 64.2465 20.1267 64.3131 20.42C64.5931 20.3667 64.8865 20.34 65.1931 20.34C65.8465 20.34 66.1731 20.5733 66.1731 21.04C66.1731 21.32 66.0731 21.9867 65.8731 23.04C65.5665 24.5733 65.4131 25.64 65.4131 26.24C65.4131 26.44 65.4598 26.6 65.5531 26.72C65.6598 26.84 65.7931 26.9 65.9531 26.9C66.2065 26.9 66.5131 26.74 66.8731 26.42C67.2331 26.0867 67.7198 25.5533 68.3331 24.82C68.4931 24.6333 68.6731 24.54 68.8731 24.54C69.0465 24.54 69.1798 24.62 69.2731 24.78C69.3798 24.94 69.4331 25.16 69.4331 25.44C69.4331 25.9733 69.3065 26.3867 69.0531 26.68C68.5065 27.36 67.9265 27.9333 67.3131 28.4C66.6998 28.8667 66.1065 29.1 65.5331 29.1C65.0931 29.1 64.6865 28.9533 64.3131 28.66C63.9531 28.3533 63.6798 27.94 63.4931 27.42C62.7998 28.54 61.9265 29.1 60.8731 29.1ZM61.5931 27.08C61.8865 27.08 62.1665 26.9067 62.4331 26.56C62.6998 26.2133 62.8931 25.7533 63.0131 25.18L63.7531 21.5C63.1931 21.5133 62.6731 21.7267 62.1931 22.14C61.7265 22.54 61.3531 23.0733 61.0731 23.74C60.7931 24.4067 60.6531 25.1133 60.6531 25.86C60.6531 26.2733 60.7331 26.58 60.8931 26.78C61.0665 26.98 61.2998 27.08 61.5931 27.08ZM72.2677 29.1C71.441 29.1 70.781 28.8 70.2877 28.2C69.7943 27.6 69.5477 26.8133 69.5477 25.84C69.5477 24.7733 69.7943 23.7667 70.2877 22.82C70.781 21.86 71.4343 21.0933 72.2477 20.52C73.0743 19.9333 73.9477 19.64 74.8677 19.64C75.161 19.64 75.3543 19.7 75.4477 19.82C75.5543 19.9267 75.641 20.1267 75.7077 20.42C75.9877 20.3667 76.281 20.34 76.5877 20.34C77.241 20.34 77.5677 20.5733 77.5677 21.04C77.5677 21.32 77.4677 21.9867 77.2677 23.04C76.961 24.5733 76.8077 25.64 76.8077 26.24C76.8077 26.44 76.8543 26.6 76.9477 26.72C77.0543 26.84 77.1877 26.9 77.3477 26.9C77.601 26.9 77.9077 26.74 78.2677 26.42C78.6277 26.0867 79.1143 25.5533 79.7277 24.82C79.8877 24.6333 80.0677 24.54 80.2677 24.54C80.441 24.54 80.5743 24.62 80.6677 24.78C80.7743 24.94 80.8277 25.16 80.8277 25.44C80.8277 25.9733 80.701 26.3867 80.4477 26.68C79.901 27.36 79.321 27.9333 78.7077 28.4C78.0943 28.8667 77.501 29.1 76.9277 29.1C76.4877 29.1 76.081 28.9533 75.7077 28.66C75.3477 28.3533 75.0743 27.94 74.8877 27.42C74.1943 28.54 73.321 29.1 72.2677 29.1ZM72.9877 27.08C73.281 27.08 73.561 26.9067 73.8277 26.56C74.0943 26.2133 74.2877 25.7533 74.4077 25.18L75.1477 21.5C74.5877 21.5133 74.0677 21.7267 73.5877 22.14C73.121 22.54 72.7477 23.0733 72.4677 23.74C72.1877 24.4067 72.0477 25.1133 72.0477 25.86C72.0477 26.2733 72.1277 26.58 72.2877 26.78C72.461 26.98 72.6943 27.08 72.9877 27.08ZM90.1222 24.54C90.2955 24.54 90.4289 24.62 90.5222 24.78C90.6289 24.94 90.6822 25.16 90.6822 25.44C90.6822 25.9733 90.5555 26.3867 90.3022 26.68C89.7289 27.3867 89.1022 27.9667 88.4222 28.42C87.7422 28.8733 86.9622 29.1 86.0822 29.1C83.3622 29.1 82.0022 27.1867 82.0022 23.36C82.0022 22.7733 82.0222 22.18 82.0622 21.58H81.2822C80.8822 21.58 80.6089 21.5067 80.4622 21.36C80.3289 21.2133 80.2622 20.98 80.2622 20.66C80.2622 19.9133 80.5622 19.54 81.1622 19.54H82.3022C82.5289 18.0733 82.8755 16.7333 83.3422 15.52C83.8089 14.3067 84.3689 13.34 85.0222 12.62C85.6889 11.9 86.4022 11.54 87.1622 11.54C87.7222 11.54 88.1622 11.7867 88.4822 12.28C88.8022 12.7733 88.9622 13.3933 88.9622 14.14C88.9622 16.2067 88.0955 18.0067 86.3622 19.54H88.6022C88.8155 19.54 88.9689 19.5867 89.0622 19.68C89.1555 19.7733 89.2022 19.9467 89.2022 20.2C89.2022 21.12 88.4489 21.58 86.9422 21.58H84.5022C84.4755 22.2467 84.4622 22.7667 84.4622 23.14C84.4622 24.5267 84.6222 25.5 84.9422 26.06C85.2755 26.62 85.7955 26.9 86.5022 26.9C87.0755 26.9 87.5822 26.7267 88.0222 26.38C88.4622 26.0333 88.9822 25.5133 89.5822 24.82C89.7422 24.6333 89.9222 24.54 90.1222 24.54ZM86.6222 13.46C86.4222 13.46 86.1955 13.7133 85.9422 14.22C85.7022 14.7133 85.4689 15.4067 85.2422 16.3C85.0289 17.18 84.8489 18.16 84.7022 19.24C85.4889 18.56 86.0755 17.8 86.4622 16.96C86.8622 16.1067 87.0622 15.3333 87.0622 14.64C87.0622 13.8533 86.9155 13.46 86.6222 13.46ZM93.5138 29.1C92.6871 29.1 92.0271 28.8 91.5338 28.2C91.0404 27.6 90.7938 26.8133 90.7938 25.84C90.7938 24.7733 91.0404 23.7667 91.5338 22.82C92.0271 21.86 92.6804 21.0933 93.4938 20.52C94.3204 19.9333 95.1938 19.64 96.1138 19.64C96.4071 19.64 96.6004 19.7 96.6938 19.82C96.8004 19.9267 96.8871 20.1267 96.9538 20.42C97.2338 20.3667 97.5271 20.34 97.8338 20.34C98.4871 20.34 98.8138 20.5733 98.8138 21.04C98.8138 21.32 98.7138 21.9867 98.5138 23.04C98.2071 24.5733 98.0538 25.64 98.0538 26.24C98.0538 26.44 98.1004 26.6 98.1938 26.72C98.3004 26.84 98.4338 26.9 98.5938 26.9C98.8471 26.9 99.1538 26.74 99.5138 26.42C99.8738 26.0867 100.36 25.5533 100.974 24.82C101.134 24.6333 101.314 24.54 101.514 24.54C101.687 24.54 101.82 24.62 101.914 24.78C102.02 24.94 102.074 25.16 102.074 25.44C102.074 25.9733 101.947 26.3867 101.694 26.68C101.147 27.36 100.567 27.9333 99.9538 28.4C99.3404 28.8667 98.7471 29.1 98.1738 29.1C97.7338 29.1 97.3271 28.9533 96.9538 28.66C96.5938 28.3533 96.3204 27.94 96.1338 27.42C95.4404 28.54 94.5671 29.1 93.5138 29.1ZM94.2338 27.08C94.5271 27.08 94.8071 26.9067 95.0738 26.56C95.3404 26.2133 95.5338 25.7533 95.6538 25.18L96.3938 21.5C95.8338 21.5133 95.3138 21.7267 94.8338 22.14C94.3671 22.54 93.9938 23.0733 93.7138 23.74C93.4338 24.4067 93.2938 25.1133 93.2938 25.86C93.2938 26.2733 93.3738 26.58 93.5338 26.78C93.7071 26.98 93.9404 27.08 94.2338 27.08ZM106.168 29.54C105.475 29.54 104.942 29.38 104.568 29.06C104.208 28.74 104.028 28.38 104.028 27.98C104.028 27.6333 104.155 27.3333 104.408 27.08C104.662 26.8267 105.035 26.7 105.528 26.7C105.702 26.7 105.902 26.72 106.128 26.76C106.368 26.7867 106.548 26.8067 106.668 26.82C106.655 26.4733 106.575 26.1467 106.428 25.84C106.295 25.5333 106.122 25.24 105.908 24.96C105.695 24.6667 105.495 24.4133 105.308 24.2C104.895 24.9867 104.482 25.64 104.068 26.16C103.668 26.68 103.228 27.1733 102.748 27.64C102.508 27.88 102.255 28 101.988 28C101.775 28 101.602 27.9267 101.468 27.78C101.335 27.62 101.268 27.4267 101.268 27.2C101.268 26.9333 101.362 26.6867 101.548 26.46L101.808 26.14C102.542 25.2333 103.095 24.4867 103.468 23.9C103.695 23.5133 103.962 23 104.268 22.36C104.575 21.7067 104.875 21.0333 105.168 20.34C105.422 19.7533 105.948 19.46 106.748 19.46C107.122 19.46 107.382 19.4933 107.528 19.56C107.675 19.6267 107.748 19.7333 107.748 19.88C107.748 19.96 107.722 20.0867 107.668 20.26C107.615 20.4333 107.542 20.6067 107.448 20.78C107.208 21.26 107.088 21.6667 107.088 22C107.088 22.2 107.155 22.42 107.288 22.66C107.435 22.9 107.655 23.2 107.948 23.56C108.375 24.12 108.695 24.6 108.908 25C109.135 25.3867 109.248 25.8133 109.248 26.28C109.248 26.4133 109.235 26.6 109.208 26.84C109.862 26.5867 110.628 25.9133 111.508 24.82C111.668 24.6333 111.848 24.54 112.048 24.54C112.222 24.54 112.355 24.62 112.448 24.78C112.555 24.94 112.608 25.16 112.608 25.44C112.608 25.9467 112.482 26.36 112.228 26.68C111.562 27.5067 110.922 28.0733 110.308 28.38C109.708 28.6733 108.962 28.8333 108.068 28.86C107.535 29.3133 106.902 29.54 106.168 29.54ZM115.443 29.1C114.617 29.1 113.957 28.8 113.463 28.2C112.97 27.6 112.723 26.8133 112.723 25.84C112.723 24.7733 112.97 23.7667 113.463 22.82C113.957 21.86 114.61 21.0933 115.423 20.52C116.25 19.9333 117.123 19.64 118.043 19.64C118.337 19.64 118.53 19.7 118.623 19.82C118.73 19.9267 118.817 20.1267 118.883 20.42C119.163 20.3667 119.457 20.34 119.763 20.34C120.417 20.34 120.743 20.5733 120.743 21.04C120.743 21.32 120.643 21.9867 120.443 23.04C120.137 24.5733 119.983 25.64 119.983 26.24C119.983 26.44 120.03 26.6 120.123 26.72C120.23 26.84 120.363 26.9 120.523 26.9C120.777 26.9 121.083 26.74 121.443 26.42C121.803 26.0867 122.29 25.5533 122.903 24.82C123.063 24.6333 123.243 24.54 123.443 24.54C123.617 24.54 123.75 24.62 123.843 24.78C123.95 24.94 124.003 25.16 124.003 25.44C124.003 25.9733 123.877 26.3867 123.623 26.68C123.077 27.36 122.497 27.9333 121.883 28.4C121.27 28.8667 120.677 29.1 120.103 29.1C119.663 29.1 119.257 28.9533 118.883 28.66C118.523 28.3533 118.25 27.94 118.063 27.42C117.37 28.54 116.497 29.1 115.443 29.1ZM116.163 27.08C116.457 27.08 116.737 26.9067 117.003 26.56C117.27 26.2133 117.463 25.7533 117.583 25.18L118.323 21.5C117.763 21.5133 117.243 21.7267 116.763 22.14C116.297 22.54 115.923 23.0733 115.643 23.74C115.363 24.4067 115.223 25.1133 115.223 25.86C115.223 26.2733 115.303 26.58 115.463 26.78C115.637 26.98 115.87 27.08 116.163 27.08ZM125.798 29.1C125.291 29.1 124.931 28.8333 124.718 28.3C124.518 27.7667 124.418 26.9133 124.418 25.74C124.418 24.0067 124.665 22.36 125.158 20.8C125.278 20.4133 125.471 20.1333 125.738 19.96C126.018 19.7733 126.405 19.68 126.898 19.68C127.165 19.68 127.351 19.7133 127.458 19.78C127.565 19.8467 127.618 19.9733 127.618 20.16C127.618 20.3733 127.518 20.8533 127.318 21.6C127.185 22.1333 127.078 22.6 126.998 23C126.918 23.4 126.851 23.8933 126.798 24.48C127.238 23.3333 127.731 22.4 128.278 21.68C128.825 20.96 129.358 20.4467 129.878 20.14C130.411 19.8333 130.898 19.68 131.338 19.68C132.205 19.68 132.638 20.1133 132.638 20.98C132.638 21.1533 132.578 21.5733 132.458 22.24C132.351 22.7733 132.298 23.1067 132.298 23.24C132.298 23.7067 132.465 23.94 132.798 23.94C133.171 23.94 133.651 23.6467 134.238 23.06C134.411 22.8867 134.591 22.8 134.778 22.8C134.951 22.8 135.085 22.88 135.178 23.04C135.285 23.1867 135.338 23.3867 135.338 23.64C135.338 24.1333 135.205 24.52 134.938 24.8C134.565 25.1867 134.125 25.52 133.618 25.8C133.125 26.0667 132.598 26.2 132.038 26.2C131.331 26.2 130.791 26.02 130.418 25.66C130.058 25.3 129.878 24.8133 129.878 24.2C129.878 24 129.898 23.8 129.938 23.6C129.965 23.3333 129.978 23.1533 129.978 23.06C129.978 22.8467 129.905 22.74 129.758 22.74C129.558 22.74 129.291 22.9667 128.958 23.42C128.638 23.86 128.318 24.4467 127.998 25.18C127.678 25.9133 127.418 26.6867 127.218 27.5C127.071 28.1267 126.898 28.5533 126.698 28.78C126.511 28.9933 126.211 29.1 125.798 29.1ZM138.24 18.36C137.68 18.36 137.26 18.2333 136.98 17.98C136.7 17.7133 136.56 17.3467 136.56 16.88C136.56 16.4133 136.74 16.0267 137.1 15.72C137.473 15.4 137.933 15.24 138.48 15.24C138.973 15.24 139.373 15.36 139.68 15.6C139.986 15.84 140.14 16.18 140.14 16.62C140.14 17.1533 139.966 17.58 139.62 17.9C139.273 18.2067 138.813 18.36 138.24 18.36ZM136.32 29.1C135.893 29.1 135.6 29.0133 135.44 28.84C135.28 28.6667 135.2 28.3933 135.2 28.02C135.2 27.9133 135.213 27.7267 135.24 27.46C135.453 25.02 135.806 22.8 136.3 20.8C136.406 20.3867 136.58 20.1 136.82 19.94C137.073 19.7667 137.473 19.68 138.02 19.68C138.593 19.68 138.88 19.9133 138.88 20.38C138.88 20.4467 138.866 20.5733 138.84 20.76C138.24 23.6133 137.88 26.0067 137.76 27.94C137.733 28.3667 137.606 28.6667 137.38 28.84C137.153 29.0133 136.8 29.1 136.32 29.1Z" fill="#122848"/>
</svg>
