<svg width="60" height="40" viewBox="0 0 60 40" fill="none" xmlns="http://www.w3.org/2000/svg">
<path d="M31.4666 8C30.8536 8.00049 30.2658 8.24424 29.8323 8.67774C29.3988 9.11124 29.155 9.69905 29.1545 10.3121C29.1545 11.5875 30.1913 12.6242 31.4666 12.6242C32.742 12.6242 33.7788 11.5875 33.7788 10.3121C33.7788 9.03675 32.742 8 31.4666 8ZM29.0972 13.5491C28.5044 13.5491 28.2732 13.7516 27.9115 13.9541L24.8485 16.5548C24.5775 16.7102 24.4323 16.9525 24.3278 17.2771L23.6637 21.6701C23.5694 22.3712 23.9375 22.6532 24.3574 22.7392C24.6968 22.8086 25.2092 22.6532 25.31 22.1621C25.3932 21.7571 26.0036 18.1733 26.0036 18.1733L27.9985 16.6417C27.7297 17.8922 27.4696 19.1445 27.2179 20.3985C27.0302 21.3705 27.5324 22.1076 27.9115 22.6819C28.263 23.2091 32.7485 30.3193 33.345 31.0924C33.9415 31.8656 34.4798 32.2485 35.3103 31.7861C36.0039 31.3995 35.8994 30.5033 35.5128 29.8494C33.8706 27.1584 32.2231 24.4705 30.5705 21.7857L31.351 18.4914C31.351 18.4914 31.8856 19.2498 32.1603 19.6762C32.2898 19.8787 32.41 19.9684 32.767 20.1673C33.1859 20.3985 35.2132 21.3048 35.831 21.5832C36.3794 21.8292 37.0888 21.9235 37.3625 21.4389C37.6372 20.9552 37.283 20.3846 36.8714 20.1959C36.4229 19.9906 33.4319 18.4914 33.4319 18.4914C33.4319 18.4914 32.3591 16.2589 31.8135 15.0233C31.3002 13.8598 30.9571 13.5491 30.2237 13.5491H29.0972ZM26.8128 23.173L25.888 26.41L23.4325 29.9937C23.0311 30.5791 22.7167 31.2654 23.4029 31.7861C24.1724 32.3678 24.7939 31.627 25.1953 31.1784C25.5597 30.7669 27.0551 28.6749 27.4778 28.145C27.7599 27.7898 27.9078 27.4865 28.0272 27.1905C28.1067 26.9917 28.41 26.1898 28.6052 25.659L26.8128 23.173Z" fill="#122848"/>
</svg>
