<svg width="15" height="24" viewBox="0 0 15 24" fill="none" xmlns="http://www.w3.org/2000/svg">
<path d="M8.46657 0C7.85351 0.00048986 7.2657 0.244244 6.8322 0.677743C6.3987 1.11124 6.15495 1.69905 6.15446 2.31211C6.15446 3.58747 7.19121 4.62422 8.46657 4.62422C9.74193 4.62422 10.7787 3.58747 10.7787 2.31211C10.7787 1.03675 9.74193 0 8.46657 0ZM6.09712 5.54907C5.50429 5.54907 5.27308 5.75161 4.91147 5.95415L1.84838 8.55481C1.5774 8.71018 1.4322 8.95249 1.32769 9.27711L0.663656 13.6701C0.569322 14.3712 0.93741 14.6532 1.35729 14.7392C1.69671 14.8086 2.20907 14.6532 2.30988 14.1621C2.39311 13.7571 3.00351 10.1733 3.00351 10.1733L4.9984 8.64175C4.72967 9.89219 4.46947 11.1445 4.21783 12.3985C4.03009 13.3705 4.53228 14.1076 4.91147 14.6819C5.26291 15.2091 9.7484 22.3193 10.3449 23.0924C10.9415 23.8656 11.4797 24.2485 12.3102 23.7861C13.0039 23.3995 12.8993 22.5033 12.5128 21.8494C10.8705 19.1584 9.22303 16.4705 7.57039 13.7857L8.35096 10.4914C8.35096 10.4914 8.88552 11.2498 9.1602 11.6762C9.28968 11.8787 9.40991 11.9684 9.7669 12.1673C10.1859 12.3985 12.2131 13.3048 12.8309 13.5832C13.3793 13.8292 14.0887 13.9235 14.3624 13.4389C14.6371 12.9552 14.2829 12.3846 13.8714 12.1959C13.4228 11.9906 10.4319 10.4914 10.4319 10.4914C10.4319 10.4914 9.35904 8.25886 8.81338 7.02327C8.30009 5.85981 7.95698 5.54907 7.22358 5.54907H6.09712ZM3.81275 15.173L2.88791 18.41L0.432445 21.9937C0.0310622 22.5791 -0.283385 23.2654 0.40285 23.7861C1.17232 24.3678 1.79382 23.627 2.1952 23.1784C2.55959 22.7669 4.05506 20.6749 4.47771 20.145C4.75979 19.7898 4.90777 19.4865 5.02707 19.1905C5.10661 18.9917 5.40996 18.1898 5.6051 17.659L3.81275 15.173Z" fill="#122848"/>
</svg>
